{"title":"The.Independents.2014.10.17.WS.SDTV.x264-XAiO","uid":11289768,"size":767135282,"categoryP":"video","categoryS":"tv_shows","magnet":"?xt=urn:btih:f40b07720452511cd5a41c24b6e85aafa6d25e80&amp;dn=The.Independents.2014.10.17.WS.SDTV.x264-XAiO&amp;tr=udp%3A%2F%2Ftracker.openbittorrent.com%3A80&amp;tr=udp%3A%2F%2Fopen.demonii.com%3A1337&amp;tr=udp%3A%2F%2Ftracker.coppersurfer.tk%3A6969&amp;tr=udp%3A%2F%2Fexodus.desync.com%3A6969","seeders":0,"leechers":0,"uploader":"Reive","files":-1,"time":1414311459,"description":"Great skeptical oriented show. Wish Stossel would do something similar. Especially nice seeing Michael Shermer.\n\nTONIGHT ON THE INDEPENDENTS (written by Matt Welch, taken from Reason)\n---------------------------\nFriday episodes of The Independents (Fox Business Network, 9 p.m. ET, 6 p.m. PT, with re-airs three and five hours later) are organized around a theme, and tonight's is &quot;I'm Skeptical&quot; (pictured). It's all about modern-day (and occasionally historical) skepticism, and how it might be applied to such disparate topics as Ebola, voting, ISIS, global warming, organic foods, vaccines, and so on. Joining to discuss are:\n\n* Michael Shermer, publisher of Skeptic magazine (read about him and stuff by him in the Reason archive).\n\n* Beloved Reason Managing Editor Katherine Mangu-Ward (read her Reason archive here).\n\n* Amateur historian and professional hair model Michael Malice (read his great 2013 Reason feature &quot;My Week in North Korea&quot;).\n\n* TV's Andy Levy, whose real name is apparently &quot;Andrew.&quot;\n\nIt is a lively and entertaining news program that I recommend consuming audio-visually.\n\n\nINFO\n----\nRipped with the Diamond VC500. Using the software that came packaged with the dongle. (It's called EZ Ripper.) In that software there's a &quot;DVD Standard&quot; which rips the video to .mpg at 720x480 with some terrible black bars. I load that file into AVIDemux. Cut the file into multiple parts to remove the commercials. Rejoin, crop, and resize those files using the same tool. For conversion I used MPEG4 AVC (x264), 2 pass on video and AAC (faac) on audio.\n\nI am not part of the scene. I just admire their naming standards.\n\nGeneral \nComplete name : H:MediaBrianTelevisionThe IndependentsThe Independents 2014The.Independents.2014.10.17.WS.SDTV.x264-XAiO.mp4 \nFormat : MPEG-4 \nFormat profile : Base Media \nCodec ID : isom \nFile size : 732 MiB \nDuration : 42mn 22s \nOverall bit rate : 2 414 Kbps \nWriting application : Lavf54.63.104 \n\nVideo \nID : 1 \nFormat : AVC \nFormat/Info : Advanced Video Codec \nFormat profile : &lt;a class=&quot;__cf_email__&quot; href=&quot;/cdn-cgi/l/email-protection&quot; data-cfemail=&quot;d49cbdb3bc9498e7fae4&quot;&gt;[email&amp;#160;protected]&lt;/a&gt;&lt;script cf-hash='f9e31' type=&quot;text/javascript&quot;&gt;\n/* &lt;![CDATA[ */!function(){try{var t=&quot;currentScript&quot;in document?document.currentScript:function(){for(var t=document.getElementsByTagName(&quot;script&quot;),e=t.length;e--;)if(t[e].getAttribute(&quot;cf-hash&quot;))return t[e]}();if(t&amp;&amp;t.previousSibling){var e,r,n,i,c=t.previousSibling,a=c.getAttribute(&quot;data-cfemail&quot;);if(a){for(e=&quot;&quot;,r=parseInt(a.substr(0,2),16),n=2;a.length-n;n+=2)i=parseInt(a.substr(n,2),16)^r,e+=String.fromCharCode(i);e=document.createTextNode(e),c.parentNode.replaceChild(e,c)}}}catch(u){}}();/* ]]&gt; */&lt;/script&gt; \nFormat settings, CABAC : Yes \nFormat settings, ReFrames : 4 frames \nCodec ID : avc1 \nCodec ID/Info : Advanced Video Coding \nDuration : 42mn 22s \nBit rate : 2 276 Kbps \nWidth : 720 pixels \nHeight : 404 pixels \nDisplay aspect ratio : 16:9 \nFrame rate mode : Variable \nFrame rate : 29.970 fps \nMinimum frame rate : 9.990 fps \nMaximum frame rate : 29.970 fps \nColor space : YUV \nChroma subsampling : 4:2:0 \nBit depth : 8 bits \nScan type : Progressive \nBits/(Pixel*Frame) : 0.261 \nStream size : 690 MiB (94%) \nWriting library : x264 core 123 r2189 35cf912 \nEncoding settings : cabac=1 / ref=3 / deblock=1:0:0 / analyse=0x3:0x133 / me=hex / subme=7 / psy=1 / psy_rd=1.00:0.00 / mixed_ref=1 / me_range=16 / chroma_me=1 / trellis=1 / 8x8dct=1 / cqm=0 / deadzone=21,11 / fast_pskip=1 / chroma_qp_offset=-2 / threads=6 / sliced_threads=0 / nr=0 / decimate=1 / interlaced=0 / bluray_compat=0 / constrained_intra=0 / bframes=3 / b_pyramid=2 / b_adapt=1 / b_bias=0 / direct=1 / weightb=1 / open_gop=0 / weightp=2 / keyint=250 / keyint_min=25 / scenecut=40 / intra_refresh=0 / rc_lookahead=40 / rc=2pass / mbtree=1 / bitrate=2276 / ratetol=1.0 / qcomp=0.60 / qpmin=10 / qpmax=51 / qpstep=4 / cplxblur=20.0 / qblur=0.5 / ip_ratio=1.40 / aq=1:1.00 \n\nAudio \nID : 2 \nFormat : AAC \nFormat/Info : Advanced Audio Codec \nFormat profile : LC \nCodec ID : 40 \nDuration : 42mn 22s \nBit rate mode : Constant \nBit rate : 128 Kbps \nChannel(s) : 2 channels \nChannel positions : Front: L R \nSampling rate : 48.0 KHz \nCompression mode : Lossy \nStream size : 38.8 MiB (5%) \nLanguage : unk","torrent":{"xt":"urn:btih:f40b07720452511cd5a41c24b6e85aafa6d25e80","amp;dn":"The.Independents.2014.10.17.WS.SDTV.x264-XAiO","amp;tr":["udp%3A%2F%2Ftracker.openbittorrent.com%3A80","udp%3A%2F%2Fopen.demonii.com%3A1337","udp%3A%2F%2Ftracker.coppersurfer.tk%3A6969","udp%3A%2F%2Fexodus.desync.com%3A6969"],"infoHash":"f40b07720452511cd5a41c24b6e85aafa6d25e80","infoHashBuffer":{"type":"Buffer","data":[244,11,7,114,4,82,81,28,213,164,28,36,182,232,90,175,166,210,94,128]},"announce":[],"urlList":[]}}